<?xml version="1.0" encoding="UTF-8" standalone="no"?><svg xmlns="http://www.w3.org/2000/svg" width="718.54102" height="719.737"><path d="m 409.46717,325.04309 -47.75054,50.63895 95.31771,96.76472 -43.75052,41.58424 C 370.22733,481.75605 317.58254,463.85239 263.7246,463.90214 124.89046,464.03087 12.282529,576.63881 12.153769,715.473 c -0.1287,138.83413 112.270581,251.23333 251.104681,251.10463 138.83421,-0.1287 251.44215,-112.7366 251.57086,-251.57078 0.0498,-53.85792 -17.8539,-106.50271 -50.12763,-150.75608 l 44.17513,-42.73094 99.31417,98.54513 48.85728,-50.30154 -98.88451,-98.97488 100.60596,-100.60603 -0.12429,134.04682 72.04924,-0.0665 0,-257.32208 -257.32171,0 -0.0666,72.0495 135.2437,-0.12553 L 506.57444,422.18459 409.4662,325.04411 z M 443.0185,715.0735 c -0.0921,99.33823 -80.35515,179.60133 -179.69344,179.69343 -99.33826,0.092 -179.452631,-80.0223 -179.360491,-179.36054 0.0921,-99.33831 80.355161,-179.60133 179.693401,-179.69342 99.33826,-0.0921 179.45261,80.02225 179.36053,179.36053 z" fill="#000" transform="translate(-12.153659,-246.84075)" /></svg>